<svg width="127" height="52" viewBox="0 0 127 52" fill="none" xmlns="http://www.w3.org/2000/svg">
<path d="M56.5488 17.7148V20H46.3047V17.7148H56.5488ZM47.1738 17.7148V23.4863H44.4199L44.2637 17.7148H47.1738ZM58.6582 17.7148L58.4043 23.4961H55.7188V17.7148H58.6582ZM54.9375 5.78125V8.07617H48.0918V5.78125H54.9375ZM57.0273 5.78125V20H54.1074V5.78125H57.0273ZM47.7305 5.78125H50.6602L50.2793 11.5723C50.2207 12.5293 50.1165 13.3757 49.9668 14.1113C49.8236 14.8405 49.6478 15.4818 49.4395 16.0352C49.2376 16.5885 49.013 17.0736 48.7656 17.4902C48.5182 17.9004 48.2578 18.2585 47.9844 18.5645C47.7109 18.8639 47.4342 19.1309 47.1543 19.3652C46.8743 19.5931 46.6009 19.8047 46.334 20H44.6543V17.7148H45.3086C45.4974 17.5586 45.696 17.3438 45.9043 17.0703C46.1191 16.7969 46.321 16.429 46.5098 15.9668C46.7051 15.498 46.8743 14.9056 47.0176 14.1895C47.1673 13.4733 47.278 12.6009 47.3496 11.5723L47.7305 5.78125ZM58.3469 14.8242V14.6191C58.3469 13.8444 58.4576 13.1315 58.6789 12.4805C58.9003 11.8229 59.2225 11.2533 59.6457 10.7715C60.0689 10.2897 60.5897 9.91536 61.2082 9.64844C61.8267 9.375 62.5363 9.23828 63.3371 9.23828C64.1379 9.23828 64.8508 9.375 65.4758 9.64844C66.1008 9.91536 66.6249 10.2897 67.048 10.7715C67.4777 11.2533 67.8033 11.8229 68.0246 12.4805C68.246 13.1315 68.3566 13.8444 68.3566 14.6191V14.8242C68.3566 15.5924 68.246 16.3053 68.0246 16.9629C67.8033 17.6139 67.4777 18.1836 67.048 18.6719C66.6249 19.1536 66.104 19.528 65.4855 19.7949C64.8671 20.0618 64.1574 20.1953 63.3566 20.1953C62.5559 20.1953 61.843 20.0618 61.218 19.7949C60.5995 19.528 60.0754 19.1536 59.6457 18.6719C59.2225 18.1836 58.9003 17.6139 58.6789 16.9629C58.4576 16.3053 58.3469 15.5924 58.3469 14.8242ZM61.1594 14.6191V14.8242C61.1594 15.2669 61.1984 15.6803 61.2766 16.0645C61.3547 16.4486 61.4784 16.7871 61.6477 17.0801C61.8234 17.3665 62.0513 17.5911 62.3313 17.7539C62.6112 17.9167 62.953 17.998 63.3566 17.998C63.7473 17.998 64.0826 17.9167 64.3625 17.7539C64.6424 17.5911 64.8671 17.3665 65.0363 17.0801C65.2056 16.7871 65.3293 16.4486 65.4074 16.0645C65.4921 15.6803 65.5344 15.2669 65.5344 14.8242V14.6191C65.5344 14.1895 65.4921 13.7858 65.4074 13.4082C65.3293 13.0241 65.2023 12.6855 65.0266 12.3926C64.8573 12.0931 64.6327 11.8587 64.3527 11.6895C64.0728 11.5202 63.7342 11.4355 63.3371 11.4355C62.94 11.4355 62.6014 11.5202 62.3215 11.6895C62.048 11.8587 61.8234 12.0931 61.6477 12.3926C61.4784 12.6855 61.3547 13.0241 61.2766 13.4082C61.1984 13.7858 61.1594 14.1895 61.1594 14.6191ZM73.2504 17.998C73.5954 17.998 73.9014 17.9329 74.1684 17.8027C74.4353 17.666 74.6436 17.4772 74.7934 17.2363C74.9496 16.9889 75.031 16.6992 75.0375 16.3672H77.684C77.6775 17.1094 77.4789 17.7702 77.0883 18.3496C76.6977 18.9225 76.1736 19.375 75.516 19.707C74.8585 20.0326 74.1228 20.1953 73.309 20.1953C72.4887 20.1953 71.7725 20.0586 71.1605 19.7852C70.5551 19.5117 70.0505 19.1341 69.6469 18.6523C69.2432 18.1641 68.9405 17.5977 68.7387 16.9531C68.5368 16.3021 68.4359 15.6055 68.4359 14.8633V14.5801C68.4359 13.8314 68.5368 13.1348 68.7387 12.4902C68.9405 11.8392 69.2432 11.2728 69.6469 10.791C70.0505 10.3027 70.5551 9.92188 71.1605 9.64844C71.766 9.375 72.4757 9.23828 73.2895 9.23828C74.1553 9.23828 74.9138 9.4043 75.5648 9.73633C76.2224 10.0684 76.7367 10.5436 77.1078 11.1621C77.4854 11.7741 77.6775 12.5 77.684 13.3398H75.0375C75.031 12.9883 74.9561 12.6693 74.8129 12.3828C74.6762 12.0964 74.4743 11.8685 74.2074 11.6992C73.947 11.5234 73.6247 11.4355 73.2406 11.4355C72.8305 11.4355 72.4952 11.5234 72.2348 11.6992C71.9743 11.8685 71.7725 12.1029 71.6293 12.4023C71.4861 12.6953 71.3852 13.0306 71.3266 13.4082C71.2745 13.7793 71.2484 14.1699 71.2484 14.5801V14.8633C71.2484 15.2734 71.2745 15.6673 71.3266 16.0449C71.3786 16.4225 71.4763 16.7578 71.6195 17.0508C71.7693 17.3438 71.9743 17.5749 72.2348 17.7441C72.4952 17.9134 72.8337 17.998 73.2504 17.998ZM83.4957 9.43359V20H80.6734V9.43359H83.4957ZM86.8941 9.43359V11.6113H77.3238V9.43359H86.8941ZM92.6766 17.6172V12.9102C92.6766 12.5716 92.6212 12.2819 92.5105 12.041C92.3999 11.7936 92.2273 11.6016 91.993 11.4648C91.7651 11.3281 91.4689 11.2598 91.1043 11.2598C90.7918 11.2598 90.5216 11.3151 90.2938 11.4258C90.0659 11.5299 89.8901 11.6829 89.7664 11.8848C89.6427 12.0801 89.5809 12.3112 89.5809 12.5781H86.7684C86.7684 12.1289 86.8725 11.7025 87.0809 11.2988C87.2892 10.8952 87.5919 10.5404 87.9891 10.2344C88.3862 9.92188 88.8582 9.67773 89.4051 9.50195C89.9585 9.32617 90.577 9.23828 91.2605 9.23828C92.0809 9.23828 92.81 9.375 93.448 9.64844C94.0861 9.92188 94.5874 10.332 94.952 10.8789C95.323 11.4258 95.5086 12.1094 95.5086 12.9297V17.4512C95.5086 18.0306 95.5444 18.5059 95.616 18.877C95.6876 19.2415 95.7918 19.5605 95.9285 19.834V20H93.0867C92.95 19.7135 92.8458 19.3555 92.7742 18.9258C92.7091 18.4896 92.6766 18.0534 92.6766 17.6172ZM93.0477 13.5645L93.0672 15.1562H91.4949C91.1238 15.1562 90.8016 15.1986 90.5281 15.2832C90.2547 15.3678 90.0301 15.4883 89.8543 15.6445C89.6785 15.7943 89.5483 15.9701 89.4637 16.1719C89.3855 16.3737 89.3465 16.5951 89.3465 16.8359C89.3465 17.0768 89.4018 17.2949 89.5125 17.4902C89.6232 17.679 89.7827 17.8288 89.991 17.9395C90.1993 18.0436 90.4435 18.0957 90.7234 18.0957C91.1466 18.0957 91.5145 18.0111 91.827 17.8418C92.1395 17.6725 92.3803 17.4642 92.5496 17.2168C92.7254 16.9694 92.8165 16.735 92.823 16.5137L93.5652 17.7051C93.4611 17.972 93.3178 18.2487 93.1355 18.5352C92.9598 18.8216 92.7352 19.0918 92.4617 19.3457C92.1883 19.5931 91.8595 19.7982 91.4754 19.9609C91.0913 20.1172 90.6355 20.1953 90.1082 20.1953C89.4376 20.1953 88.8289 20.0618 88.282 19.7949C87.7417 19.5215 87.312 19.1471 86.993 18.6719C86.6805 18.1901 86.5242 17.6432 86.5242 17.0312C86.5242 16.4779 86.6284 15.9863 86.8367 15.5566C87.0451 15.127 87.351 14.7656 87.7547 14.4727C88.1648 14.1732 88.6759 13.9486 89.2879 13.7988C89.8999 13.6426 90.6095 13.5645 91.4168 13.5645H93.0477ZM101.74 15.5859H98.4297L98.4102 13.7402H101.145C101.509 13.7402 101.805 13.7044 102.033 13.6328C102.261 13.5547 102.427 13.4408 102.531 13.291C102.642 13.1348 102.697 12.946 102.697 12.7246C102.697 12.5293 102.661 12.3633 102.59 12.2266C102.525 12.0833 102.424 11.9661 102.287 11.875C102.15 11.7839 101.978 11.7188 101.77 11.6797C101.568 11.6341 101.33 11.6113 101.057 11.6113H99.4746V20H96.6621V9.43359H101.057C101.747 9.43359 102.365 9.49544 102.912 9.61914C103.459 9.73633 103.924 9.91536 104.309 10.1562C104.699 10.3971 104.995 10.7031 105.197 11.0742C105.406 11.4388 105.51 11.8717 105.51 12.373C105.51 12.6986 105.435 13.0046 105.285 13.291C105.142 13.5775 104.927 13.8314 104.641 14.0527C104.354 14.2741 103.999 14.4564 103.576 14.5996C103.16 14.7363 102.678 14.821 102.131 14.8535L101.74 15.5859ZM101.74 20H97.7363L98.7031 17.8223H101.74C102.085 17.8223 102.368 17.7799 102.59 17.6953C102.811 17.6107 102.974 17.487 103.078 17.3242C103.189 17.1549 103.244 16.9531 103.244 16.7188C103.244 16.4909 103.195 16.2923 103.098 16.123C103 15.9538 102.84 15.8236 102.619 15.7324C102.404 15.6348 102.111 15.5859 101.74 15.5859H99.1133L99.1328 13.7402H102.121L102.805 14.4824C103.547 14.528 104.159 14.668 104.641 14.9023C105.122 15.1367 105.477 15.4362 105.705 15.8008C105.939 16.1589 106.057 16.5527 106.057 16.9824C106.057 17.4837 105.962 17.9232 105.773 18.3008C105.585 18.6784 105.305 18.9941 104.934 19.248C104.569 19.4954 104.12 19.6842 103.586 19.8145C103.052 19.9382 102.437 20 101.74 20ZM109.583 9.43359V20H106.771V9.43359H109.583ZM116.448 9.43359L111.898 16.0449H109.085L108.743 13.4473H110.609L112.884 9.43359H116.448ZM113.011 20L110.413 15.5371L112.864 14.1797L116.78 20H113.011ZM122.338 17.6172V12.9102C122.338 12.5716 122.283 12.2819 122.172 12.041C122.062 11.7936 121.889 11.6016 121.655 11.4648C121.427 11.3281 121.131 11.2598 120.766 11.2598C120.454 11.2598 120.183 11.3151 119.955 11.4258C119.728 11.5299 119.552 11.6829 119.428 11.8848C119.304 12.0801 119.243 12.3112 119.243 12.5781H116.43C116.43 12.1289 116.534 11.7025 116.743 11.2988C116.951 10.8952 117.254 10.5404 117.651 10.2344C118.048 9.92188 118.52 9.67773 119.067 9.50195C119.62 9.32617 120.239 9.23828 120.922 9.23828C121.743 9.23828 122.472 9.375 123.11 9.64844C123.748 9.92188 124.249 10.332 124.614 10.8789C124.985 11.4258 125.17 12.1094 125.17 12.9297V17.4512C125.17 18.0306 125.206 18.5059 125.278 18.877C125.349 19.2415 125.454 19.5605 125.59 19.834V20H122.748C122.612 19.7135 122.508 19.3555 122.436 18.9258C122.371 18.4896 122.338 18.0534 122.338 17.6172ZM122.709 13.5645L122.729 15.1562H121.157C120.786 15.1562 120.463 15.1986 120.19 15.2832C119.916 15.3678 119.692 15.4883 119.516 15.6445C119.34 15.7943 119.21 15.9701 119.125 16.1719C119.047 16.3737 119.008 16.5951 119.008 16.8359C119.008 17.0768 119.064 17.2949 119.174 17.4902C119.285 17.679 119.444 17.8288 119.653 17.9395C119.861 18.0436 120.105 18.0957 120.385 18.0957C120.808 18.0957 121.176 18.0111 121.489 17.8418C121.801 17.6725 122.042 17.4642 122.211 17.2168C122.387 16.9694 122.478 16.735 122.485 16.5137L123.227 17.7051C123.123 17.972 122.98 18.2487 122.797 18.5352C122.621 18.8216 122.397 19.0918 122.123 19.3457C121.85 19.5931 121.521 19.7982 121.137 19.9609C120.753 20.1172 120.297 20.1953 119.77 20.1953C119.099 20.1953 118.491 20.0618 117.944 19.7949C117.403 19.5215 116.974 19.1471 116.655 18.6719C116.342 18.1901 116.186 17.6432 116.186 17.0312C116.186 16.4779 116.29 15.9863 116.498 15.5566C116.707 15.127 117.013 14.7656 117.416 14.4727C117.827 14.1732 118.338 13.9486 118.95 13.7988C119.562 13.6426 120.271 13.5645 121.079 13.5645H122.709ZM47.3398 35.4336V46H45.5332V35.4336H47.3398ZM54.2734 35.4336L49.2637 41.4883H46.7344L46.4609 39.9062H48.5312L52.0762 35.4336H54.2734ZM52.3301 46L48.4434 41.2148L49.6055 39.9062L54.625 46H52.3301ZM55.4039 40.834V40.6094C55.4039 39.8477 55.5146 39.1413 55.7359 38.4902C55.9573 37.8327 56.2763 37.263 56.693 36.7812C57.1096 36.293 57.6142 35.9154 58.2066 35.6484C58.7991 35.375 59.4632 35.2383 60.1988 35.2383C60.941 35.2383 61.6083 35.375 62.2008 35.6484C62.7997 35.9154 63.3076 36.293 63.7242 36.7812C64.1474 37.263 64.4697 37.8327 64.691 38.4902C64.9124 39.1413 65.023 39.8477 65.023 40.6094V40.834C65.023 41.5957 64.9124 42.3021 64.691 42.9531C64.4697 43.6042 64.1474 44.1738 63.7242 44.6621C63.3076 45.1439 62.803 45.5215 62.2105 45.7949C61.6246 46.0618 60.9605 46.1953 60.2184 46.1953C59.4762 46.1953 58.8089 46.0618 58.2164 45.7949C57.624 45.5215 57.1161 45.1439 56.693 44.6621C56.2763 44.1738 55.9573 43.6042 55.7359 42.9531C55.5146 42.3021 55.4039 41.5957 55.4039 40.834ZM57.2105 40.6094V40.834C57.2105 41.3613 57.2724 41.8594 57.3961 42.3281C57.5198 42.7904 57.7053 43.2005 57.9527 43.5586C58.2066 43.9167 58.5224 44.1999 58.9 44.4082C59.2776 44.61 59.7171 44.7109 60.2184 44.7109C60.7132 44.7109 61.1461 44.61 61.5172 44.4082C61.8948 44.1999 62.2073 43.9167 62.4547 43.5586C62.7021 43.2005 62.8876 42.7904 63.0113 42.3281C63.1415 41.8594 63.2066 41.3613 63.2066 40.834V40.6094C63.2066 40.0885 63.1415 39.597 63.0113 39.1348C62.8876 38.666 62.6988 38.2526 62.4449 37.8945C62.1975 37.5299 61.885 37.2435 61.5074 37.0352C61.1363 36.8268 60.7001 36.7227 60.1988 36.7227C59.704 36.7227 59.2678 36.8268 58.8902 37.0352C58.5191 37.2435 58.2066 37.5299 57.9527 37.8945C57.7053 38.2526 57.5198 38.666 57.3961 39.1348C57.2724 39.597 57.2105 40.0885 57.2105 40.6094ZM79.3371 40.9023V41.1074C79.3371 41.8496 79.2557 42.5332 79.093 43.1582C78.9302 43.7767 78.6861 44.3138 78.3605 44.7695C78.0415 45.2253 77.6444 45.5801 77.1691 45.834C76.6939 46.0814 76.1437 46.2051 75.5187 46.2051C75.0044 46.2051 74.552 46.1367 74.1613 46C73.7707 45.8568 73.4387 45.6517 73.1652 45.3848C72.8983 45.1178 72.6835 44.7988 72.5207 44.4277C72.3645 44.0501 72.257 43.627 72.1984 43.1582V38.4707C72.257 37.9694 72.3645 37.5202 72.5207 37.123C72.6835 36.7259 72.8983 36.3874 73.1652 36.1074C73.4387 35.8275 73.7674 35.6126 74.1516 35.4629C74.5357 35.3132 74.9849 35.2383 75.4992 35.2383C76.007 35.2383 76.4628 35.3294 76.8664 35.5117C77.2766 35.6875 77.6346 35.9414 77.9406 36.2734C78.2531 36.6055 78.5103 37.0059 78.7121 37.4746C78.9204 37.9368 79.0767 38.4577 79.1809 39.0371C79.285 39.6165 79.3371 40.2383 79.3371 40.9023ZM77.5305 41.1074V40.9023C77.5305 40.4466 77.4979 40.0137 77.4328 39.6035C77.3742 39.1868 77.2798 38.806 77.1496 38.4609C77.0259 38.1094 76.8632 37.8034 76.6613 37.543C76.4595 37.2826 76.2154 37.0807 75.9289 36.9375C75.649 36.7943 75.3267 36.7227 74.9621 36.7227C74.5715 36.7227 74.246 36.7715 73.9855 36.8691C73.7316 36.9668 73.5331 37.097 73.3898 37.2598C73.2466 37.416 73.1424 37.582 73.0773 37.7578V43.8809C73.1555 44.0241 73.2694 44.1608 73.4191 44.291C73.5689 44.4147 73.7707 44.5189 74.0246 44.6035C74.2785 44.6816 74.5975 44.7207 74.9816 44.7207C75.4374 44.7207 75.8247 44.6296 76.1437 44.4473C76.4693 44.2585 76.7329 43.998 76.9348 43.666C77.1431 43.334 77.2928 42.9499 77.384 42.5137C77.4816 42.0775 77.5305 41.6087 77.5305 41.1074ZM66.7883 41.1074V40.9023C66.7883 40.2383 66.8404 39.6165 66.9445 39.0371C67.0487 38.4577 67.2049 37.9368 67.4133 37.4746C67.6216 37.0059 67.8788 36.6055 68.1848 36.2734C68.4973 35.9414 68.8553 35.6875 69.259 35.5117C69.6691 35.3294 70.1281 35.2383 70.6359 35.2383C71.1372 35.2383 71.5734 35.3132 71.9445 35.4629C72.3221 35.6126 72.6411 35.8275 72.9016 36.1074C73.162 36.3874 73.3703 36.7259 73.5266 37.123C73.6828 37.5202 73.7935 37.9694 73.8586 38.4707V42.9727C73.8 43.4674 73.6926 43.9134 73.5363 44.3105C73.3801 44.7077 73.1717 45.0495 72.9113 45.3359C72.6509 45.6159 72.3286 45.8307 71.9445 45.9805C71.5669 46.1302 71.1242 46.2051 70.6164 46.2051C69.9914 46.2051 69.4413 46.0814 68.966 45.834C68.4908 45.5801 68.0904 45.2253 67.7648 44.7695C67.4458 44.3138 67.2017 43.7767 67.0324 43.1582C66.8697 42.5332 66.7883 41.8496 66.7883 41.1074ZM68.6047 40.9023V41.1074C68.6047 41.6087 68.647 42.0775 68.7316 42.5137C68.8228 42.9499 68.9628 43.334 69.1516 43.666C69.3469 43.998 69.6008 44.2585 69.9133 44.4473C70.2258 44.6296 70.6099 44.7207 71.0656 44.7207C71.4562 44.7207 71.7785 44.6719 72.0324 44.5742C72.2863 44.4766 72.4882 44.3496 72.6379 44.1934C72.7876 44.0371 72.9016 43.8743 72.9797 43.7051V37.7578C72.9146 37.582 72.8072 37.416 72.6574 37.2598C72.5142 37.097 72.3156 36.9668 72.0617 36.8691C71.8078 36.7715 71.4823 36.7227 71.0852 36.7227C70.6294 36.7227 70.2421 36.8333 69.923 37.0547C69.604 37.276 69.3469 37.5788 69.1516 37.9629C68.9628 38.347 68.8228 38.793 68.7316 39.3008C68.647 39.8021 68.6047 40.3359 68.6047 40.9023ZM72.0812 50.0625V31H73.8977V50.0625H72.0812ZM85.9852 46.1953C85.2495 46.1953 84.5822 46.0716 83.9832 45.8242C83.3908 45.5703 82.8797 45.2155 82.45 44.7598C82.0268 44.304 81.7013 43.7637 81.4734 43.1387C81.2456 42.5137 81.1316 41.8301 81.1316 41.0879V40.6777C81.1316 39.8184 81.2586 39.0534 81.5125 38.3828C81.7664 37.7057 82.1115 37.1328 82.5477 36.6641C82.9839 36.1953 83.4786 35.8405 84.032 35.5996C84.5854 35.3587 85.1583 35.2383 85.7508 35.2383C86.506 35.2383 87.157 35.3685 87.7039 35.6289C88.2573 35.8893 88.7098 36.2539 89.0613 36.7227C89.4129 37.1849 89.6733 37.7318 89.8426 38.3633C90.0118 38.9883 90.0965 39.6719 90.0965 40.4141V41.2246H82.2059V39.75H88.2898V39.6133C88.2638 39.1445 88.1661 38.6888 87.9969 38.2461C87.8341 37.8034 87.5737 37.4388 87.2156 37.1523C86.8576 36.8659 86.3693 36.7227 85.7508 36.7227C85.3406 36.7227 84.963 36.8105 84.618 36.9863C84.2729 37.1556 83.9767 37.4095 83.7293 37.748C83.4819 38.0866 83.2898 38.5 83.1531 38.9883C83.0164 39.4766 82.948 40.0397 82.948 40.6777V41.0879C82.948 41.5892 83.0164 42.0612 83.1531 42.5039C83.2964 42.9401 83.5014 43.3242 83.7684 43.6562C84.0418 43.9883 84.3706 44.2487 84.7547 44.4375C85.1453 44.6263 85.588 44.7207 86.0828 44.7207C86.7208 44.7207 87.2612 44.5905 87.7039 44.3301C88.1466 44.0697 88.534 43.7214 88.866 43.2852L89.9598 44.1543C89.7319 44.4993 89.4422 44.8281 89.0906 45.1406C88.7391 45.4531 88.3061 45.707 87.7918 45.9023C87.284 46.0977 86.6818 46.1953 85.9852 46.1953Z" fill="#33333D"/>
<path d="M33.5833 10.5L30.9313 5.19817C30.7515 4.83832 30.4751 4.53565 30.133 4.32403C29.7909 4.11241 29.3966 4.00021 28.9943 4H10.0057C9.6034 4.00021 9.20913 4.11241 8.86703 4.32403C8.52492 4.53565 8.24848 4.83832 8.06867 5.19817L5.41667 10.5H0V14.8333H39V10.5H33.5833ZM8.09033 45.4743C8.24417 46.5403 9.1585 47.3333 10.2375 47.3333H28.7647C29.286 47.3334 29.79 47.1455 30.184 46.804C30.578 46.4625 30.8356 45.9904 30.9097 45.4743L34.6667 19.1667H4.33333L8.09033 45.4743ZM28.1667 25.6667L26.6197 36.5H12.3803L10.8333 25.6667H28.1667Z" fill="#9747FF"/>
</svg>
